<svg width="104" height="60" viewBox="0 0 104 60" fill="none" xmlns="http://www.w3.org/2000/svg">
<path d="M103.246 58.0133C99.5241 58.959 97.2221 58.0548 95.1566 54.9557L80.4684 34.6484L78.3454 31.8368L61.192 55.0228C59.2321 57.812 57.1763 59.0261 53.5186 58.0388L75.4838 28.5747L55.0341 1.96055C58.5511 1.27683 60.981 1.62508 63.1392 4.77213L78.3742 25.3318L93.7211 4.88396C95.6874 2.09474 97.8008 1.03401 101.331 2.06279L93.4013 12.5679L82.6585 26.5459C81.3796 28.1434 81.5555 29.2361 82.7321 30.7793L103.246 58.0133ZM0.958623 28.0827L2.75549 19.2518C7.64732 1.77524 27.6942 -5.48695 41.5192 5.31209C49.5987 11.6637 51.6066 20.648 51.207 30.7122H5.66501C4.98079 48.8277 18.0289 59.7609 34.6643 54.1825C40.4993 52.224 43.9364 47.6584 45.6565 41.9457C46.5293 39.083 47.9745 38.6357 50.6666 39.4536C49.2918 46.5976 46.1904 52.5658 39.636 56.3008C29.8428 61.892 15.8643 60.0836 8.51058 52.3134C4.13032 47.8053 2.32066 42.0927 1.50855 35.9839C1.38066 34.9743 1.12488 34.0126 0.933044 33.0445C0.950097 31.3916 0.958623 29.7388 0.958623 28.0859V28.0827ZM5.74814 26.8686H46.9034C46.6349 13.7692 38.4722 4.46542 27.3169 4.38554C15.0714 4.28969 6.27888 13.373 5.74814 26.8686V26.8686Z" fill="black"/>
</svg>
