<svg width="121" height="108" viewBox="0 0 121 108" fill="none" xmlns="http://www.w3.org/2000/svg">
<path d="M98.3363 37.6661L99.0472 35.5996L99.0472 35.5996L98.3363 37.6661ZM96.9839 71.1485L97.6708 73.2232L97.6708 73.2232L96.9839 71.1485ZM22.7726 71.1124L22.0662 73.1805L22.0664 73.1806L22.7726 71.1124ZM21.6555 37.7686L20.9365 35.7049L20.9365 35.7049L21.6555 37.7686ZM41.1593 43.1212L40.9624 45.2977L42.3538 45.4236L43.0521 44.2136L41.1593 43.1212ZM65.0106 12.9352L66.4447 14.5843L66.4447 14.5843L65.0106 12.9352ZM89.0456 4.0167L90.1367 2.12319L90.1367 2.12318L89.0456 4.0167ZM93.3606 30.8326L91.2203 30.3913L91.2202 30.3917L93.3606 30.8326ZM79.3457 65.127L81.2385 66.2194L81.2385 66.2194L79.3457 65.127ZM56.2563 95.0535L54.8186 93.4075L54.8185 93.4076L56.2563 95.0535ZM31.2728 104.124L32.364 102.231L32.3634 102.23L31.2728 104.124ZM26.7928 79.3631L24.6459 78.9551L26.7928 79.3631ZM41.157 43.121L41.3539 40.9445L39.9623 40.8186L39.264 42.0289L41.157 43.121ZM41.1776 65.1591L43.0686 64.0636L43.0686 64.0635L41.1776 65.1591ZM26.9189 29.4347L24.7742 29.8546L24.7743 29.855L26.9189 29.4347ZM31.1903 4.17236L32.2845 6.06408L32.2846 6.06402L31.1903 4.17236ZM56.5941 13.829L55.1437 15.4636L55.1437 15.4637L56.5941 13.829ZM79.3279 43.0895L77.4369 44.185V44.185L79.3279 43.0895ZM93.7428 78.0247L95.8865 77.6001L95.8865 77.6L93.7428 78.0247ZM89.1297 104.184L88.0354 102.292L88.0354 102.292L89.1297 104.184ZM65.4246 95.6962L66.8495 94.0392L66.8494 94.0392L65.4246 95.6962ZM68.8543 54.0168C68.8543 58.7619 65.0045 62.6112 60.2522 62.6112V66.982C67.4155 66.982 73.2251 61.1788 73.2251 54.0168H68.8543ZM60.2522 62.6112C55.4999 62.6112 51.6501 58.7619 51.6501 54.0168H47.2793C47.2793 61.1788 53.0889 66.982 60.2522 66.982V62.6112ZM51.6501 54.0168C51.6501 49.2718 55.4999 45.4225 60.2522 45.4225V41.0517C53.0889 41.0517 47.2793 46.8549 47.2793 54.0168H51.6501ZM60.2522 45.4225C65.0045 45.4225 68.8543 49.2718 68.8543 54.0168H73.2251C73.2251 46.8549 67.4155 41.0517 60.2522 41.0517V45.4225ZM60.2526 34.2847C74.5518 34.2847 87.7578 36.338 97.6253 39.7326L99.0472 35.5996C88.6248 32.0141 74.9208 29.9139 60.2526 29.9139V34.2847ZM97.6253 39.7326C103.569 41.7773 108.245 44.3104 111.39 46.9325C114.595 49.6051 115.889 52.0856 115.889 54.0168H120.26C120.26 50.1763 117.797 46.5841 114.189 43.5756C110.52 40.5165 105.327 37.76 99.0472 35.5996L97.6253 39.7326ZM115.889 54.0168C115.889 56.0582 114.496 58.6971 111.063 61.5207C107.697 64.2902 102.686 66.9586 96.297 69.0739L97.6708 73.2232C104.408 70.9926 109.943 68.1023 113.84 64.8961C117.672 61.7438 120.26 57.9898 120.26 54.0168H115.889ZM96.2971 69.0739C86.6614 72.264 73.8501 73.9638 60.2526 73.9638V78.3346C74.1526 78.3346 87.459 76.604 97.6708 73.2232L96.2971 69.0739ZM60.2526 73.9638C46.2842 73.9638 33.2006 72.364 23.4788 69.0443L22.0664 73.1806C32.4157 76.7146 46.0287 78.3346 60.2526 78.3346V73.9638ZM23.479 69.0444C17.3168 66.9396 12.4957 64.2593 9.2602 61.4904C5.96284 58.6686 4.61387 56.0312 4.61387 54.0168H0.243067C0.243067 57.9023 2.71778 61.6444 6.41832 64.8112C10.1807 68.031 15.5317 70.9486 22.0662 73.1805L23.479 69.0444ZM4.61387 54.0168C4.61387 52.079 5.85812 49.6188 8.94284 46.9815C11.9781 44.3865 16.5213 41.8716 22.3745 39.8323L20.9365 35.7049C14.7383 37.8643 9.66793 40.6111 6.10257 43.6593C2.58661 46.6653 0.243067 50.2299 0.243067 54.0168H4.61387ZM22.3745 39.8323C32.2737 36.3835 45.8078 34.2847 60.2507 34.2847V29.9139C45.4432 29.9139 31.403 32.0584 20.9365 35.7049L22.3745 39.8323ZM60.2507 34.2847H60.2526V29.9139H60.2507V34.2847ZM43.0521 44.2136C50.1956 31.8358 58.5724 21.4302 66.4447 14.5843L63.5766 11.2861C55.2613 18.5173 46.5946 29.3312 39.2665 42.0288L43.0521 44.2136ZM66.4447 14.5843C71.1862 10.461 75.7182 7.67836 79.5625 6.26602C83.4806 4.82655 86.2789 4.9447 87.9545 5.91022L90.1367 2.12318C86.8091 0.205685 82.4659 0.542905 78.0552 2.16334C73.5707 3.81091 68.5868 6.92908 63.5766 11.2861L66.4447 14.5843ZM87.9545 5.91021C89.7253 6.93067 91.3163 9.45618 92.0492 13.837C92.7682 18.1344 92.5782 23.8045 91.2203 30.3913L95.501 31.2738C96.9331 24.3273 97.1926 18.0917 96.3601 13.1157C95.5415 8.22307 93.58 4.10736 90.1367 2.12319L87.9545 5.91021ZM91.2202 30.3917C89.1742 40.3257 84.246 52.2638 77.4529 64.0347L81.2385 66.2194C88.1826 54.1869 93.3324 41.8035 95.5011 31.2734L91.2202 30.3917ZM77.4529 64.0347C70.4746 76.1264 62.5521 86.6527 54.8186 93.4075L57.6939 96.6994C65.9274 89.5078 74.1323 78.5326 81.2385 66.2194L77.4529 64.0347ZM54.8185 93.4076C49.9157 97.6903 45.1837 100.525 41.1669 101.942C37.0734 103.387 34.1117 103.238 32.364 102.231L30.1816 106.018C33.5484 107.958 38.0274 107.685 42.6215 106.064C47.2922 104.416 52.4946 101.241 57.694 96.6993L54.8185 93.4076ZM32.3634 102.23C30.683 101.263 29.1722 98.9567 28.4271 94.9693C27.694 91.0456 27.7836 85.8564 28.9398 79.771L24.6459 78.9551C23.4213 85.3999 23.2694 91.1623 24.1307 95.7721C24.9801 100.318 26.8997 104.128 30.1823 106.018L32.3634 102.23ZM28.9398 79.771C30.8953 69.4794 35.8368 56.7156 43.0499 44.2131L39.264 42.0289C31.8687 54.8472 26.7136 68.0727 24.6459 78.9551L28.9398 79.771ZM40.9601 45.2975L40.9624 45.2977L41.3562 40.9447L41.3539 40.9445L40.9601 45.2975ZM43.0686 64.0635C35.9051 51.7002 31.0692 39.2488 29.0635 29.0144L24.7743 29.855C26.8928 40.6648 31.9376 53.571 39.2867 66.2547L43.0686 64.0635ZM29.0635 29.0147C27.8566 22.8507 27.7075 17.5378 28.4028 13.5049C29.1115 9.39471 30.611 7.0321 32.2845 6.06408L30.096 2.28064C26.7709 4.20402 24.8936 8.13367 24.0956 12.7623C23.2843 17.4683 23.4988 23.3408 24.7742 29.8546L29.0635 29.0147ZM32.2846 6.06402C34.0542 5.04027 37.0395 4.92424 41.2043 6.4778C45.2898 8.00175 50.1111 10.9983 55.1437 15.4636L58.0446 12.1943C52.7374 7.48525 47.4612 4.14674 42.7319 2.38263C38.082 0.648138 33.5352 0.291011 30.0959 2.28071L32.2846 6.06402ZM55.1437 15.4637C62.7343 22.1984 70.6243 32.4255 77.4369 44.185L81.2189 41.994C74.2545 29.9725 66.0893 19.332 58.0445 12.1942L55.1437 15.4637ZM77.4369 44.185C84.4353 56.265 89.6044 68.3811 91.599 78.4494L95.8865 77.6C93.7628 66.8802 88.3455 54.2953 81.2189 41.994L77.4369 44.185ZM91.599 78.4494C92.8635 84.8328 92.9577 90.3446 92.1808 94.5295C91.3891 98.794 89.7811 101.282 88.0354 102.292L90.224 106.076C93.5881 104.13 95.5894 100.115 96.4782 95.3272C97.3818 90.4598 97.2276 84.3699 95.8865 77.6001L91.599 78.4494ZM88.0354 102.292C86.3556 103.264 83.6002 103.42 79.7706 102.074C76.0023 100.749 71.548 98.0796 66.8495 94.0392L63.9997 97.3532C68.9755 101.632 73.8948 104.641 78.3209 106.197C82.6858 107.732 86.9458 107.972 90.224 106.076L88.0354 102.292ZM66.8494 94.0392C58.9033 87.2065 50.305 76.5538 43.0686 64.0636L39.2867 66.2547C46.706 79.0607 55.5979 90.1287 63.9997 97.3533L66.8494 94.0392Z" fill="#00D8FF"/>
</svg>
