<svg width="91" height="104" viewBox="0 0 91 104" fill="none" xmlns="http://www.w3.org/2000/svg">
<path d="M90.4285 0.998413L82.2097 93.0032L45.2661 103.238L8.42428 93.0176L0.214233 0.998413H90.4285Z" fill="#264DE4"/>
<path d="M45.3212 95.4149L75.1734 87.1446L82.1969 8.52234H45.3212V95.4149Z" fill="#2965F1"/>
<path d="M45.3212 42.6509H19.0354L20.0477 53.9366H45.3212V42.6509Z" fill="#EBEBEB"/>
<path d="M45.3213 19.8083H45.2823H17.0016L18.0283 31.0942H45.3213V19.8083Z" fill="#EBEBEB"/>
<path d="M20.5525 59.5797L22.1348 77.3L45.2694 83.7177L45.3214 83.7033V71.9614L45.2719 71.9745L32.6938 68.5807L31.8898 59.5797H20.5525Z" fill="#EBEBEB"/>
<path d="M59.1893 53.9367L57.8784 68.5734L45.2822 71.9708V83.7123L68.4352 77.3L71.259 45.6816L71.5346 42.651L73.5735 19.8083H45.2823L45.2822 31.0942H61.1964L60.1687 42.651H45.2822V53.9367H59.1893Z" fill="white"/>
</svg>
