<svg width="47" height="103" viewBox="0 0 47 103" fill="none" xmlns="http://www.w3.org/2000/svg">
<path d="M22.7692 0.515432L25.4997 5.64018C26.1136 6.5859 26.7786 7.42298 27.5619 8.20256C29.848 10.487 32.0189 12.88 33.9693 15.4424C38.5957 21.5128 41.7163 28.2543 43.9448 35.5452C45.2812 39.999 46.007 44.5678 46.0613 49.1878C46.2852 62.9997 41.5468 74.8594 31.9933 84.7159C30.4331 86.2751 28.7641 87.7192 26.9736 89.0036C26.0272 89.0036 25.5796 88.2783 25.1896 87.6106C24.4638 86.3869 24.0194 84.9907 23.7955 83.6009C23.4598 81.9299 23.2392 80.259 23.3479 78.5337V77.7541C23.2712 77.5879 22.4367 0.908415 22.7692 0.515432Z" fill="#599636"/>
<path d="M22.7691 0.346123C22.6572 0.122474 22.5453 0.291808 22.4334 0.400438C22.4878 1.51868 22.0977 2.51552 21.487 3.46762C20.8156 4.41333 19.9267 5.13859 19.0347 5.91817C14.0789 10.2058 10.1783 15.3849 7.05452 21.1774C2.89807 28.9731 0.755897 37.328 0.148415 46.1238C-0.129748 49.2964 1.15236 60.4916 2.1531 63.7218C4.88357 72.2971 9.78819 79.4826 16.1412 85.7192C17.7014 87.2208 19.3704 88.6138 21.0969 89.9525C21.5989 89.9525 21.6533 89.5053 21.7684 89.173C21.9884 88.462 22.1562 87.7358 22.2703 87.0004L23.3894 78.6487L22.7691 0.346123Z" fill="#6CAC48"/>
<path d="M25.4992 92.3967C25.6111 91.1187 26.225 90.058 26.8932 89.0004C26.2218 88.7225 25.723 88.1697 25.3329 87.5531C24.9972 86.9972 24.7191 86.3294 24.5017 85.716C23.7215 83.3773 23.5553 80.9235 23.3315 78.5337V77.0863C23.0533 77.31 22.9957 79.2014 22.9957 79.4826C22.833 82.0085 22.4976 84.5203 21.9918 87.0004C21.8255 88.0036 21.7136 89.0036 21.0966 89.895C21.0966 90.0069 21.0966 90.1187 21.1509 90.2848C22.1549 93.237 22.4298 96.2435 22.5993 99.3074V100.426C22.5993 101.761 22.5449 101.48 23.6544 101.927C24.102 102.093 24.6008 102.151 25.0484 102.483C25.3841 102.483 25.4385 102.205 25.4385 101.982L25.2722 100.145V95.0198C25.2178 94.1252 25.3841 93.237 25.496 92.3999L25.4992 92.3967Z" fill="#C2BFBF"/>
</svg>
