<svg width="69" height="104" viewBox="0 0 69 104" fill="none" xmlns="http://www.w3.org/2000/svg">
<path d="M17.127 103.238C21.6495 103.238 25.9868 101.443 29.1847 98.2469C32.3826 95.0513 34.1791 90.7172 34.1791 86.1979V69.158H17.127C12.6045 69.158 8.26725 70.9533 5.06936 74.1489C1.87147 77.3445 0.0749131 81.6787 0.0749131 86.1979C0.0749131 90.7172 1.87147 95.0513 5.06936 98.2469C8.26725 101.443 12.6045 103.238 17.127 103.238Z" fill="#0ACF83"/>
<path d="M0.0749131 52.1181C0.0749131 47.5988 1.87147 43.2646 5.06936 40.069C8.26725 36.8734 12.6045 35.0782 17.127 35.0782H34.1791V69.158H17.127C12.6045 69.158 8.26725 67.3627 5.06936 64.1671C1.87147 60.9715 0.0749131 56.6373 0.0749131 52.1181Z" fill="#A259FF"/>
<path d="M0.0748901 18.0383C0.0748888 13.5214 1.86962 9.18923 5.06463 5.99401C8.25964 2.79879 12.5935 1.00196 17.1137 0.998435H34.1658V35.0782L17.127 35.0782C12.6045 35.0782 8.26723 33.283 5.06934 30.0874C1.87145 26.8918 0.0748901 22.5576 0.0748901 18.0383Z" fill="#F24E1E"/>
<path d="M34.1794 0.998413H51.2315C55.754 0.998413 60.0913 2.79368 63.2892 5.98928C66.4871 9.18488 68.2836 13.519 68.2836 18.0383C68.2836 22.5576 66.4871 26.8917 63.2892 30.0873C60.0913 33.2829 55.754 35.0782 51.2315 35.0782L34.1791 35.0782L34.1794 0.998413Z" fill="#FF7262"/>
<path d="M68.2836 52.1181C68.2836 56.6373 66.4871 60.9715 63.2892 64.1671C60.0913 67.3627 55.754 69.158 51.2315 69.158C46.709 69.158 42.3718 67.3627 39.1739 64.1671C35.976 60.9715 34.1794 56.6373 34.1794 52.1181C34.1794 47.5988 35.976 43.2646 39.1739 40.069C42.3718 36.8734 46.709 35.0782 51.2315 35.0782C55.754 35.0782 60.0913 36.8734 63.2892 40.069C66.4871 43.2646 68.2836 47.5988 68.2836 52.1181Z" fill="#1ABCFE"/>
</svg>
